<svg width="31" height="40" viewBox="0 0 31 40" fill="none" xmlns="http://www.w3.org/2000/svg">
<path fill-rule="evenodd" clip-rule="evenodd" d="M14.5026 0.665416C15.9309 -0.230858 17.7427 -0.221016 19.1614 0.69072L25.7406 4.91915C28.4571 6.66497 28.4301 10.6728 25.6904 12.3813L23.7568 13.5871L28.7373 16.7964C29.9937 17.606 30.7539 19.0055 30.7539 20.5087V26.7094C30.7539 28.2126 29.9937 29.6121 28.7373 30.4217L16.4485 38.3403C15.005 39.2704 13.1555 39.2645 11.7179 38.3251L4.68683 33.7309C2.08172 32.0286 2.01844 28.2075 4.56573 26.4186L6.42632 25.1119L2.0133 22.2626C0.758822 21.4526 0 20.0542 0 18.5524V12.2133C0 10.6913 0.779172 9.2771 2.06085 8.47282L14.5026 0.665416ZM8.2061 26.2484L5.67599 28.0253C4.26083 29.0192 4.29598 31.142 5.74327 32.0877L12.7743 36.6819C13.573 37.2038 14.6005 37.2071 15.4025 36.6904L20.1071 33.6588L8.2061 26.2484ZM22.9036 31.8568L27.6912 28.7718C28.3892 28.322 28.8116 27.5445 28.8116 26.7094V20.5087C28.8116 19.6736 28.3892 18.8961 27.6912 18.4463L21.4163 14.4029L9.888 7.11196L9.93935 13.4794C9.9461 14.3163 10.3765 15.0916 11.0804 15.5352L20.8495 21.6906C22.1273 22.4957 22.9036 23.9076 22.9036 25.4267V31.8568ZM10.7351 5.33612L21.936 12.42L24.6686 10.7159C26.1906 9.76681 26.2056 7.54023 24.6965 6.57033L18.1172 2.34189C17.3291 1.83537 16.3225 1.82991 15.5291 2.32784L10.7351 5.33612ZM7.94538 7.0867L7.99706 13.4954C8.00921 15.0017 8.78388 16.3973 10.051 17.1957L19.8201 23.3511C20.53 23.7984 20.9612 24.5828 20.9612 25.4267V31.8891L8.69119 24.2489L3.06085 20.6136C2.36392 20.1636 1.94235 19.3867 1.94235 18.5524V12.2133C1.94235 11.3677 2.37523 10.5821 3.08727 10.1352L7.94538 7.0867Z" fill="white"/>
</svg>
