<svg width="40" height="41" viewBox="0 0 40 41" fill="none" xmlns="http://www.w3.org/2000/svg">
<g clip-path="url(#clip0_1_48)">
<path fill-rule="evenodd" clip-rule="evenodd" d="M20 40.6385C31.0457 40.6385 40 31.6842 40 20.6385C40 9.59285 31.0457 0.63855 20 0.63855C8.9543 0.63855 0 9.59285 0 20.6385C0 31.6842 8.9543 40.6385 20 40.6385ZM17.0679 13.6687C16.5147 13.5171 15.9093 13.4658 15.2546 13.4658H8.65398V27.4539H15.4063C16.0107 27.4539 16.6151 27.3525 17.2196 27.1999C17.7931 27.0568 18.338 26.817 18.8311 26.4909C19.2849 26.1867 19.6885 25.7308 19.9395 25.2237C20.1915 24.7166 20.3432 24.109 20.3432 23.3991C20.3432 22.5375 20.0911 21.7774 19.6885 21.1698C19.2849 20.5613 18.6303 20.1054 17.7738 19.8514C18.3782 19.5471 18.8823 19.1424 19.1845 18.6855C19.5369 18.2296 19.6885 17.6221 19.6885 16.9122C19.6885 16.3046 19.5871 15.7463 19.3853 15.2904C19.1845 14.8345 18.8823 14.4801 18.4786 14.226C18.076 13.973 17.6222 13.7701 17.0679 13.6687ZM16.2115 18.7367C15.8591 18.9898 15.4052 19.1414 14.851 19.1414L14.852 19.1424H11.7274V15.8477H14.6492C14.9524 15.8477 15.2034 15.8477 15.4554 15.899C15.7074 15.9492 15.9093 16.0506 16.1111 16.152C16.3119 16.3036 16.4635 16.4563 16.5639 16.6591C16.6643 16.862 16.7155 17.1652 16.7155 17.4695C16.7155 18.0268 16.5639 18.4837 16.2115 18.7367ZM15.8591 25.0208C15.607 25.071 15.3048 25.1222 15.0026 25.1222L11.7274 25.1233V21.22H15.0528C15.7074 21.22 16.2617 21.3717 16.6653 21.6759C17.0679 22.0304 17.2698 22.5375 17.2698 23.2475C17.2698 23.6019 17.1683 23.9062 17.0679 24.1592C16.9409 24.3784 16.7692 24.5682 16.5639 24.7166C16.3631 24.8692 16.1111 24.9696 15.8591 25.0208ZM26.5402 25.6796C25.7339 25.6796 25.1295 25.4767 24.7269 25.071V25.072C24.3232 24.6664 24.021 23.9062 24.021 23.0948H31.3265C31.3767 22.2845 31.3265 21.5745 31.2261 20.8656C31.0253 20.1556 30.7221 19.4969 30.3184 18.9396C29.9158 18.331 29.4128 17.9254 28.7571 17.5709C28.1025 17.2164 27.3464 17.0638 26.49 17.0638C25.7649 17.0613 25.0462 17.1991 24.3734 17.4695C23.7693 17.7338 23.222 18.1127 22.7619 18.5851C22.3053 19.0884 21.9464 19.6724 21.7037 20.3072C21.4516 20.967 21.3502 21.6759 21.3502 22.4361C21.3502 23.2475 21.4516 23.9564 21.7037 24.6151C21.897 25.247 22.2428 25.8215 22.7107 26.2881C23.1481 26.7869 23.7021 27.1698 24.3232 27.4027C25.0135 27.6731 25.7486 27.8107 26.49 27.8084C27.6487 27.8084 28.6055 27.5041 29.4128 26.998C30.218 26.4397 30.8225 25.5781 31.2261 24.3631H28.7571C28.6567 24.6664 28.4047 24.9706 28.0011 25.2749C27.5985 25.5279 27.0944 25.6796 26.5402 25.6796ZM26.3384 19.1926C26.994 19.1926 27.5483 19.3955 27.9007 19.7499C28.2531 20.1054 28.5051 20.6115 28.6055 21.3717H24.0712C24.0712 21.2048 24.1055 21.0373 24.1458 20.8407C24.1542 20.7995 24.1629 20.757 24.1716 20.7129C24.2162 20.4467 24.3393 20.1998 24.525 20.004L24.5291 19.9999C24.7296 19.7984 24.9297 19.5973 25.2299 19.4467C25.5321 19.2951 25.8855 19.1926 26.3384 19.1926ZM29.1095 14.4288H23.4678V15.7975H29.1095V14.4288Z" fill="#F1F1F1"/>
</g>
<defs>
<clipPath id="clip0_1_48">
<rect y="0.63855" width="40" height="40" rx="20" fill="white"/>
</clipPath>
</defs>
</svg>
