<svg width="119" height="41" viewBox="0 0 119 41" fill="none" xmlns="http://www.w3.org/2000/svg">
<mask id="path-1-outside-1_1_17" maskUnits="userSpaceOnUse" x="0" y="-0.36145" width="119" height="41" fill="black">
<rect fill="white" y="-0.36145" width="119" height="41"/>
<path d="M13.174 17.9992C22.7732 17.9992 24.4446 13.3095 24.4446 11.1902V10.9422H18.8658C18.7303 11.3255 18.1882 13.9183 12.7449 13.9183C7.84366 13.9183 6.51107 11.3029 6.51107 9.31886V9.04831C6.51107 6.9515 7.66297 4.69688 12.6997 4.69688C18.0301 4.69688 18.7077 7.04169 18.8432 7.49261H24.422V7.2446C24.422 5.28308 22.9087 0.63855 13.174 0.63855H12.248C2.31001 0.63855 1 5.89183 1 8.93557V9.58941C1 12.5655 2.51328 17.9992 12.248 17.9992H13.174Z"/>
<path d="M26.2711 0.931651V17.7061H43.2109V13.535H31.5337V0.931651H26.2711Z"/>
<path d="M55.6551 0.63855C45.017 0.63855 43.8199 5.93692 43.8199 8.93557V9.61196C43.8199 12.5655 45.017 17.9992 55.6551 17.9992H56.6263C67.2193 17.9992 68.439 12.5655 68.439 9.61196V8.93557C68.439 5.93692 67.1967 0.63855 56.6263 0.63855H55.6551ZM62.9279 9.40904C62.9279 11.348 61.776 13.9183 56.1294 13.9183C50.4377 13.9183 49.3309 11.2804 49.3309 9.36395V9.0934C49.3309 7.17697 50.3473 4.69688 56.1294 4.69688C61.8212 4.69688 62.9279 7.17697 62.9279 9.0934V9.40904Z"/>
<path d="M81.3867 17.9541C89.9921 17.9541 91.7087 12.2273 91.7087 9.07085V0.931651H86.4461V8.7552C86.4461 10.9196 85.4523 13.6026 80.935 13.6026C76.35 13.6026 75.3787 10.9196 75.3787 8.7552V0.931651H70.0935V9.07085C70.0935 12.2273 71.5617 17.9541 80.5736 17.9541H81.3867Z"/>
<path d="M94.0742 17.7061H105.232C115.057 17.7061 117.067 13.1517 117.067 9.54432V8.86793C117.067 5.10271 114.944 0.931651 105.209 0.931651H94.0742V17.7061ZM99.3368 4.89979H104.803C110.856 4.89979 111.556 7.49261 111.556 9.20613V9.34141C111.556 11.0549 110.766 13.6703 104.803 13.6703H99.3368V4.89979Z"/>
<path d="M1.82436 40.2121H7.46046V27.2771L14.8327 40.2121H17.9778L25.3501 27.2771V40.2121H31.1371V21.5254H23.1107L16.6191 33.1543L10.1527 21.5254H1.82436V40.2121Z"/>
<path d="M34.013 21.5254V40.2121H53.991V35.8669H39.8V32.8027H53.4122V28.5329H39.8V25.7701H53.7393V21.5254H34.013Z"/>
<path d="M56.2655 40.2121H68.6952C79.6403 40.2121 81.8796 35.1385 81.8796 31.1199V30.3664C81.8796 26.1719 79.5145 21.5254 68.67 21.5254H56.2655V40.2121ZM62.1281 25.9459H68.2171C74.9603 25.9459 75.7403 28.8343 75.7403 30.7431V30.8938C75.7403 32.8027 74.8596 35.7162 68.2171 35.7162H62.1281V25.9459Z"/>
<path d="M89.2765 21.5254H83.414V40.2121H89.2765V21.5254Z"/>
<path d="M107.759 32.5767H100.664L104.136 25.5691L107.759 32.5767ZM111.685 40.2121H118L107.986 21.5254H100.387L90.9266 40.2121H96.8898L98.5756 36.7962H109.923L111.685 40.2121Z"/>
</mask>
<path d="M13.174 17.9992C22.7732 17.9992 24.4446 13.3095 24.4446 11.1902V10.9422H18.8658C18.7303 11.3255 18.1882 13.9183 12.7449 13.9183C7.84366 13.9183 6.51107 11.3029 6.51107 9.31886V9.04831C6.51107 6.9515 7.66297 4.69688 12.6997 4.69688C18.0301 4.69688 18.7077 7.04169 18.8432 7.49261H24.422V7.2446C24.422 5.28308 22.9087 0.63855 13.174 0.63855H12.248C2.31001 0.63855 1 5.89183 1 8.93557V9.58941C1 12.5655 2.51328 17.9992 12.248 17.9992H13.174Z" fill="url(#paint0_linear_1_17)" fill-opacity="0.13"/>
<path d="M26.2711 0.931651V17.7061H43.2109V13.535H31.5337V0.931651H26.2711Z" fill="url(#paint1_linear_1_17)" fill-opacity="0.13"/>
<path d="M55.6551 0.63855C45.017 0.63855 43.8199 5.93692 43.8199 8.93557V9.61196C43.8199 12.5655 45.017 17.9992 55.6551 17.9992H56.6263C67.2193 17.9992 68.439 12.5655 68.439 9.61196V8.93557C68.439 5.93692 67.1967 0.63855 56.6263 0.63855H55.6551ZM62.9279 9.40904C62.9279 11.348 61.776 13.9183 56.1294 13.9183C50.4377 13.9183 49.3309 11.2804 49.3309 9.36395V9.0934C49.3309 7.17697 50.3473 4.69688 56.1294 4.69688C61.8212 4.69688 62.9279 7.17697 62.9279 9.0934V9.40904Z" fill="url(#paint2_linear_1_17)" fill-opacity="0.13"/>
<path d="M81.3867 17.9541C89.9921 17.9541 91.7087 12.2273 91.7087 9.07085V0.931651H86.4461V8.7552C86.4461 10.9196 85.4523 13.6026 80.935 13.6026C76.35 13.6026 75.3787 10.9196 75.3787 8.7552V0.931651H70.0935V9.07085C70.0935 12.2273 71.5617 17.9541 80.5736 17.9541H81.3867Z" fill="url(#paint3_linear_1_17)" fill-opacity="0.13"/>
<path d="M94.0742 17.7061H105.232C115.057 17.7061 117.067 13.1517 117.067 9.54432V8.86793C117.067 5.10271 114.944 0.931651 105.209 0.931651H94.0742V17.7061ZM99.3368 4.89979H104.803C110.856 4.89979 111.556 7.49261 111.556 9.20613V9.34141C111.556 11.0549 110.766 13.6703 104.803 13.6703H99.3368V4.89979Z" fill="url(#paint4_linear_1_17)" fill-opacity="0.13"/>
<path d="M1.82436 40.2121H7.46046V27.2771L14.8327 40.2121H17.9778L25.3501 27.2771V40.2121H31.1371V21.5254H23.1107L16.6191 33.1543L10.1527 21.5254H1.82436V40.2121Z" fill="url(#paint5_linear_1_17)" fill-opacity="0.13"/>
<path d="M34.013 21.5254V40.2121H53.991V35.8669H39.8V32.8027H53.4122V28.5329H39.8V25.7701H53.7393V21.5254H34.013Z" fill="url(#paint6_linear_1_17)" fill-opacity="0.13"/>
<path d="M56.2655 40.2121H68.6952C79.6403 40.2121 81.8796 35.1385 81.8796 31.1199V30.3664C81.8796 26.1719 79.5145 21.5254 68.67 21.5254H56.2655V40.2121ZM62.1281 25.9459H68.2171C74.9603 25.9459 75.7403 28.8343 75.7403 30.7431V30.8938C75.7403 32.8027 74.8596 35.7162 68.2171 35.7162H62.1281V25.9459Z" fill="url(#paint7_linear_1_17)" fill-opacity="0.13"/>
<path d="M89.2765 21.5254H83.414V40.2121H89.2765V21.5254Z" fill="url(#paint8_linear_1_17)" fill-opacity="0.13"/>
<path d="M107.759 32.5767H100.664L104.136 25.5691L107.759 32.5767ZM111.685 40.2121H118L107.986 21.5254H100.387L90.9266 40.2121H96.8898L98.5756 36.7962H109.923L111.685 40.2121Z" fill="url(#paint9_linear_1_17)" fill-opacity="0.13"/>
<path d="M13.174 17.9992C22.7732 17.9992 24.4446 13.3095 24.4446 11.1902V10.9422H18.8658C18.7303 11.3255 18.1882 13.9183 12.7449 13.9183C7.84366 13.9183 6.51107 11.3029 6.51107 9.31886V9.04831C6.51107 6.9515 7.66297 4.69688 12.6997 4.69688C18.0301 4.69688 18.7077 7.04169 18.8432 7.49261H24.422V7.2446C24.422 5.28308 22.9087 0.63855 13.174 0.63855H12.248C2.31001 0.63855 1 5.89183 1 8.93557V9.58941C1 12.5655 2.51328 17.9992 12.248 17.9992H13.174Z" stroke="white" stroke-width="0.4" mask="url(#path-1-outside-1_1_17)"/>
<path d="M26.2711 0.931651V17.7061H43.2109V13.535H31.5337V0.931651H26.2711Z" stroke="white" stroke-width="0.4" mask="url(#path-1-outside-1_1_17)"/>
<path d="M55.6551 0.63855C45.017 0.63855 43.8199 5.93692 43.8199 8.93557V9.61196C43.8199 12.5655 45.017 17.9992 55.6551 17.9992H56.6263C67.2193 17.9992 68.439 12.5655 68.439 9.61196V8.93557C68.439 5.93692 67.1967 0.63855 56.6263 0.63855H55.6551ZM62.9279 9.40904C62.9279 11.348 61.776 13.9183 56.1294 13.9183C50.4377 13.9183 49.3309 11.2804 49.3309 9.36395V9.0934C49.3309 7.17697 50.3473 4.69688 56.1294 4.69688C61.8212 4.69688 62.9279 7.17697 62.9279 9.0934V9.40904Z" stroke="white" stroke-width="0.4" mask="url(#path-1-outside-1_1_17)"/>
<path d="M81.3867 17.9541C89.9921 17.9541 91.7087 12.2273 91.7087 9.07085V0.931651H86.4461V8.7552C86.4461 10.9196 85.4523 13.6026 80.935 13.6026C76.35 13.6026 75.3787 10.9196 75.3787 8.7552V0.931651H70.0935V9.07085C70.0935 12.2273 71.5617 17.9541 80.5736 17.9541H81.3867Z" stroke="white" stroke-width="0.4" mask="url(#path-1-outside-1_1_17)"/>
<path d="M94.0742 17.7061H105.232C115.057 17.7061 117.067 13.1517 117.067 9.54432V8.86793C117.067 5.10271 114.944 0.931651 105.209 0.931651H94.0742V17.7061ZM99.3368 4.89979H104.803C110.856 4.89979 111.556 7.49261 111.556 9.20613V9.34141C111.556 11.0549 110.766 13.6703 104.803 13.6703H99.3368V4.89979Z" stroke="white" stroke-width="0.4" mask="url(#path-1-outside-1_1_17)"/>
<path d="M1.82436 40.2121H7.46046V27.2771L14.8327 40.2121H17.9778L25.3501 27.2771V40.2121H31.1371V21.5254H23.1107L16.6191 33.1543L10.1527 21.5254H1.82436V40.2121Z" stroke="white" stroke-width="0.4" mask="url(#path-1-outside-1_1_17)"/>
<path d="M34.013 21.5254V40.2121H53.991V35.8669H39.8V32.8027H53.4122V28.5329H39.8V25.7701H53.7393V21.5254H34.013Z" stroke="white" stroke-width="0.4" mask="url(#path-1-outside-1_1_17)"/>
<path d="M56.2655 40.2121H68.6952C79.6403 40.2121 81.8796 35.1385 81.8796 31.1199V30.3664C81.8796 26.1719 79.5145 21.5254 68.67 21.5254H56.2655V40.2121ZM62.1281 25.9459H68.2171C74.9603 25.9459 75.7403 28.8343 75.7403 30.7431V30.8938C75.7403 32.8027 74.8596 35.7162 68.2171 35.7162H62.1281V25.9459Z" stroke="white" stroke-width="0.4" mask="url(#path-1-outside-1_1_17)"/>
<path d="M89.2765 21.5254H83.414V40.2121H89.2765V21.5254Z" stroke="white" stroke-width="0.4" mask="url(#path-1-outside-1_1_17)"/>
<path d="M107.759 32.5767H100.664L104.136 25.5691L107.759 32.5767ZM111.685 40.2121H118L107.986 21.5254H100.387L90.9266 40.2121H96.8898L98.5756 36.7962H109.923L111.685 40.2121Z" stroke="white" stroke-width="0.4" mask="url(#path-1-outside-1_1_17)"/>
<defs>
<linearGradient id="paint0_linear_1_17" x1="-2.01103" y1="0.638553" x2="137.787" y2="51.8261" gradientUnits="userSpaceOnUse">
<stop stop-color="white"/>
<stop offset="1" stop-color="white" stop-opacity="0"/>
</linearGradient>
<linearGradient id="paint1_linear_1_17" x1="-2.01103" y1="0.638553" x2="137.787" y2="51.8261" gradientUnits="userSpaceOnUse">
<stop stop-color="white"/>
<stop offset="1" stop-color="white" stop-opacity="0"/>
</linearGradient>
<linearGradient id="paint2_linear_1_17" x1="-2.01103" y1="0.638553" x2="137.787" y2="51.8261" gradientUnits="userSpaceOnUse">
<stop stop-color="white"/>
<stop offset="1" stop-color="white" stop-opacity="0"/>
</linearGradient>
<linearGradient id="paint3_linear_1_17" x1="-2.01103" y1="0.638553" x2="137.787" y2="51.8261" gradientUnits="userSpaceOnUse">
<stop stop-color="white"/>
<stop offset="1" stop-color="white" stop-opacity="0"/>
</linearGradient>
<linearGradient id="paint4_linear_1_17" x1="-2.01103" y1="0.638553" x2="137.787" y2="51.8261" gradientUnits="userSpaceOnUse">
<stop stop-color="white"/>
<stop offset="1" stop-color="white" stop-opacity="0"/>
</linearGradient>
<linearGradient id="paint5_linear_1_17" x1="-2.01103" y1="0.638553" x2="137.787" y2="51.8261" gradientUnits="userSpaceOnUse">
<stop stop-color="white"/>
<stop offset="1" stop-color="white" stop-opacity="0"/>
</linearGradient>
<linearGradient id="paint6_linear_1_17" x1="-2.01103" y1="0.638553" x2="137.787" y2="51.8261" gradientUnits="userSpaceOnUse">
<stop stop-color="white"/>
<stop offset="1" stop-color="white" stop-opacity="0"/>
</linearGradient>
<linearGradient id="paint7_linear_1_17" x1="-2.01103" y1="0.638553" x2="137.787" y2="51.8261" gradientUnits="userSpaceOnUse">
<stop stop-color="white"/>
<stop offset="1" stop-color="white" stop-opacity="0"/>
</linearGradient>
<linearGradient id="paint8_linear_1_17" x1="-2.01103" y1="0.638553" x2="137.787" y2="51.8261" gradientUnits="userSpaceOnUse">
<stop stop-color="white"/>
<stop offset="1" stop-color="white" stop-opacity="0"/>
</linearGradient>
<linearGradient id="paint9_linear_1_17" x1="-2.01103" y1="0.638553" x2="137.787" y2="51.8261" gradientUnits="userSpaceOnUse">
<stop stop-color="white"/>
<stop offset="1" stop-color="white" stop-opacity="0"/>
</linearGradient>
</defs>
</svg>
