<svg width="40" height="41" viewBox="0 0 40 41" fill="none" xmlns="http://www.w3.org/2000/svg">
<g clip-path="url(#clip0_1_287)">
<path fill-rule="evenodd" clip-rule="evenodd" d="M20 40.2881C31.0457 40.2881 40 31.3338 40 20.2881C40 9.24239 31.0457 0.288086 20 0.288086C8.9543 0.288086 0 9.24239 0 20.2881C0 31.3338 8.9543 40.2881 20 40.2881ZM23.4441 10.0001C25.2714 10.3168 27.0257 10.865 28.646 11.6203C28.6703 11.6203 28.6825 11.6325 28.6947 11.6447C31.5819 15.8964 33.0073 20.6841 32.4713 26.2027C32.4713 26.2271 32.4591 26.2514 32.4347 26.2636C30.2419 27.8717 28.1343 28.8463 26.0389 29.492C26.0024 29.5042 25.9658 29.492 25.9293 29.4798C25.4542 28.8098 25.0156 28.1032 24.6258 27.36C24.6136 27.3235 24.6258 27.2626 24.6745 27.2504C25.3689 26.9824 26.0389 26.6778 26.6724 26.3002C26.7333 26.2758 26.7333 26.2027 26.6846 26.1662C26.6176 26.1113 26.5506 26.0596 26.4836 26.0078C26.4166 25.956 26.3496 25.9042 26.2826 25.8494C26.2582 25.8251 26.2217 25.8251 26.1973 25.8372C22.0553 27.7499 17.5356 27.7499 13.3448 25.8372C13.3205 25.8251 13.2839 25.8251 13.2595 25.8494C13.1925 25.8982 13.1255 25.9499 13.0585 26.0017C12.9915 26.0535 12.9245 26.1053 12.8575 26.154C12.821 26.1905 12.821 26.2636 12.8697 26.288C13.5154 26.6535 14.1732 26.9702 14.8676 27.2382C14.9164 27.2504 14.9407 27.2991 14.9164 27.3479C14.5387 28.091 14.1001 28.7976 13.6128 29.4676C13.6006 29.492 13.5641 29.5042 13.5276 29.492C11.4444 28.8463 9.33679 27.8717 7.14395 26.2636C7.11959 26.2514 7.10741 26.2271 7.10741 26.2027C6.65665 21.4272 7.57034 16.6029 10.884 11.6447C10.8961 11.6325 10.9083 11.6203 10.9205 11.6203C12.553 10.865 14.295 10.3168 16.1224 10.0001C16.159 10.0001 16.1955 10.0122 16.2077 10.0366C16.4392 10.4386 16.695 10.9503 16.8655 11.3645C18.8038 11.0721 20.7749 11.0721 22.7131 11.3645C22.8837 10.9625 23.1395 10.4386 23.3588 10.0366C23.3695 10.0246 23.3826 10.0152 23.3974 10.0089C23.4121 10.0026 23.428 9.99954 23.4441 10.0001ZM13.2474 20.7084C13.2474 22.1338 14.295 23.2911 15.5498 23.2911C16.829 23.2911 17.8523 22.1338 17.8523 20.7084C17.8645 19.2953 16.8412 18.1257 15.5498 18.1257C14.2707 18.1257 13.2474 19.2831 13.2474 20.7084ZM21.7385 20.7084C21.7385 22.1338 22.7862 23.2911 24.041 23.2911C25.3323 23.2911 26.3435 22.1338 26.3435 20.7084C26.3557 19.2953 25.3323 18.1257 24.041 18.1257C22.7618 18.1257 21.7385 19.2831 21.7385 20.7084Z" fill="#F1F1F1"/>
</g>
<defs>
<clipPath id="clip0_1_287">
<rect y="0.288086" width="40" height="40" rx="20" fill="white"/>
</clipPath>
</defs>
</svg>
