<svg width="40" height="41" viewBox="0 0 40 41" fill="none" xmlns="http://www.w3.org/2000/svg">
<g clip-path="url(#clip0_1_294)">
<path fill-rule="evenodd" clip-rule="evenodd" d="M20 40.2881C31.0457 40.2881 40 31.3338 40 20.2881C40 9.24239 31.0457 0.288086 20 0.288086C8.9543 0.288086 0 9.24239 0 20.2881C0 31.3338 8.9543 40.2881 20 40.2881ZM15.0003 8.5326C16.5854 7.87602 18.2843 7.53809 20.0001 7.53809C21.7158 7.53809 23.4147 7.87602 24.9998 8.5326C26.5849 9.18918 28.0252 10.1515 29.2384 11.3647C30.4516 12.5779 31.414 14.0182 32.0705 15.6033C32.7271 17.1884 33.0651 18.8874 33.0651 20.6031C33.0651 26.3778 29.3285 31.2641 24.1417 33.0148C23.4753 33.1324 23.2663 32.7143 23.2663 32.3616V28.7818C23.2663 27.5667 22.8352 26.7698 22.3648 26.3647C25.2783 26.0381 28.3355 24.9407 28.3355 19.9498C28.3355 18.4996 27.8391 17.3368 26.9898 16.4092C27.1205 16.0826 27.5778 14.7238 26.8592 12.9601C26.8592 12.9601 25.7617 12.6073 23.2663 14.2927C22.2342 14.0053 21.1106 13.8615 20.0001 13.8615C18.8895 13.8615 17.7659 14.0053 16.7338 14.2927C14.2384 12.6073 13.1409 12.9601 13.1409 12.9601C12.4224 14.7238 12.8796 16.0826 13.0103 16.4092C12.1611 17.3368 11.6646 18.4996 11.6646 19.9498C11.6646 24.9276 14.7087 26.0512 17.6092 26.3778C17.2433 26.7044 16.9037 27.2793 16.7861 28.1285C16.0414 28.4421 14.1208 29.03 12.9842 27.0441C12.9842 27.0441 12.2917 25.7899 10.9852 25.6984C10.9852 25.6984 9.70484 25.6723 10.8938 26.4823C10.8938 26.4823 11.743 26.8874 12.344 28.4029C12.344 28.4029 13.1148 30.9375 16.7338 30.1536V32.3616C16.7338 32.7143 16.5248 33.1194 15.8715 33.0148C10.6847 31.2772 6.93506 26.3778 6.93506 20.6031C6.93506 17.138 8.31155 13.8149 10.7617 11.3647C11.9749 10.1515 13.4152 9.18918 15.0003 8.5326Z" fill="#F1F1F1"/>
</g>
<defs>
<clipPath id="clip0_1_294">
<rect y="0.288086" width="40" height="40" rx="20" fill="white"/>
</clipPath>
</defs>
</svg>
