<svg width="50" height="51" viewBox="0 0 50 51" fill="none" xmlns="http://www.w3.org/2000/svg">
<path d="M14.8677 27.7042C15.9274 26.6874 17.3466 26.0531 18.8935 26.0531H30.6988C34.4139 26.0531 37.6972 22.9937 38.0509 19.2208C41.3499 18.8479 44.3265 17.3977 46.6276 15.2267C47.4667 16.28 48.0313 17.6939 48.4275 19.2925C48.8251 20.8936 49.0949 22.3598 49.2308 23.7419C47.3744 22.8694 45.3046 22.3823 43.122 22.3823C35.1177 22.3823 28.6289 28.9347 28.6289 37.0174C28.6289 37.1203 28.6299 37.2229 28.632 37.3252H24.803V38.8291H28.7388C28.9022 40.1656 29.2441 41.4464 29.7396 42.6462C29.4185 43.036 29.2249 43.5378 29.2249 44.0858C29.2249 45.3336 30.2219 46.3485 31.4427 46.3485C31.6045 46.3485 31.7623 46.3308 31.9143 46.2972C32.4449 46.95 33.0305 47.5555 33.6637 48.1068C32.7613 48.6512 31.7325 49.0564 30.6988 49.3562C26.2224 50.6572 22.6348 50.458 18.8935 49.3562C18.1512 49.1375 17.4279 48.8643 16.7567 48.5317C21.282 47.3563 24.626 43.2084 24.626 38.2719C24.626 32.67 20.3198 28.0836 14.8677 27.7042Z" fill="url(#paint0_linear_1_36)" fill-opacity="0.24"/>
<path d="M14.4875 28.103C19.8895 28.2902 24.2119 32.7713 24.2119 38.2719C24.2119 43.1778 20.7736 47.2727 16.1977 48.2336C14.3288 47.1612 12.9839 45.5699 12.9839 43.3407V32.0686C12.9839 30.5706 13.5547 29.1732 14.4875 28.103Z" fill="url(#paint1_linear_1_36)" fill-opacity="0.24"/>
<path d="M49.2731 24.2254C47.4147 23.3125 45.3276 22.8004 43.122 22.8004C35.3464 22.8004 29.043 29.1656 29.043 37.0174C29.043 37.1203 29.044 37.2229 29.0462 37.3252H42.5179C45.9529 37.3252 47.2329 34.9255 48.4275 31.3235C49.1973 29.0101 49.4665 26.7519 49.2731 24.2254Z" fill="url(#paint2_linear_1_36)" fill-opacity="0.24"/>
<path d="M29.1562 38.8291H36.6084V43.3407C36.6084 45.406 35.5359 46.8574 34.0302 47.873C33.4189 47.3504 32.8523 46.7761 32.3371 46.1567C33.1166 45.8055 33.6605 45.0095 33.6605 44.0858C33.6605 42.8423 32.6679 41.8368 31.4427 41.8368C30.9201 41.8368 30.4385 42.0211 30.0586 42.3294C29.6176 41.2246 29.3101 40.0511 29.1562 38.8291Z" fill="url(#paint3_linear_1_36)" fill-opacity="0.24"/>
<path d="M38.078 18.7967C38.0809 18.7139 38.0823 18.6309 38.0823 18.5475V13.2908H42.5179C44.1849 13.2908 45.4248 13.8962 46.3567 14.91C44.1345 17.0112 41.2625 18.4203 38.078 18.7967Z" fill="url(#paint4_linear_1_36)" fill-opacity="0.24"/>
<path fill-rule="evenodd" clip-rule="evenodd" d="M21.6823 0.763765C20.7041 0.845907 19.768 0.966855 18.8934 1.12185C16.1529 1.60677 14.6414 2.38213 13.8349 3.54604C14.8229 5.56955 15.378 7.84729 15.378 10.256C15.378 10.7727 15.3525 11.2835 15.3026 11.7869H23.365C22.0608 9.53711 21.3133 6.91827 21.3133 4.12312C21.3133 2.96874 21.4408 1.84443 21.6823 0.763765ZM18.1392 4.40188C18.2663 4.40188 18.3693 4.50589 18.3693 4.63419V8.35106C18.3693 8.47936 18.2663 8.58337 18.1392 8.58337C18.0122 8.58337 17.9092 8.47936 17.9092 8.35106V4.63419C17.9092 4.50589 18.0122 4.40188 18.1392 4.40188ZM17.219 4.86649C17.3461 4.86649 17.4491 4.9705 17.4491 5.0988V7.88645C17.4491 8.01475 17.3461 8.11876 17.219 8.11876C17.092 8.11876 16.989 8.01475 16.989 7.88645V5.0988C16.989 4.9705 17.092 4.86649 17.219 4.86649ZM16.2988 5.79571C16.4259 5.79571 16.5289 5.89972 16.5289 6.02802V6.95723C16.5289 7.08553 16.4259 7.18954 16.2988 7.18954C16.1718 7.18954 16.0688 7.08553 16.0688 6.95723V6.02802C16.0688 5.89972 16.1718 5.79571 16.2988 5.79571ZM19.2895 5.0988C19.2895 4.9705 19.1865 4.86649 19.0594 4.86649C18.9324 4.86649 18.8294 4.9705 18.8294 5.0988V7.88645C18.8294 8.01475 18.9324 8.11876 19.0594 8.11876C19.1865 8.11876 19.2895 8.01475 19.2895 7.88645V5.0988ZM20.2097 6.02802C20.2097 5.89972 20.1067 5.79571 19.9796 5.79571C19.8526 5.79571 19.7496 5.89972 19.7496 6.02802V6.95723C19.7496 7.08553 19.8526 7.18954 19.9796 7.18954C20.1067 7.18954 20.2097 7.08553 20.2097 6.95723V6.02802Z" fill="url(#paint5_linear_1_36)" fill-opacity="0.24"/>
<path d="M12.8715 27.7549C14.2215 25.8555 16.4388 24.563 18.8934 24.563H30.6988C33.7268 24.563 36.192 22.262 36.5607 19.3145C36.4934 19.3154 36.426 19.3158 36.3586 19.3158C31.4595 19.3158 27.1073 16.9513 24.3601 13.2908H15.0778C13.6852 20.2271 7.61314 25.4484 0.333374 25.4487C0.348235 27.235 0.620015 29.0604 1.16477 31.3235C1.65295 33.3599 2.53488 35.0561 3.86205 36.1199C4.76353 31.7086 8.38127 28.2996 12.8715 27.7549Z" fill="url(#paint6_linear_1_36)" fill-opacity="0.24"/>
<path d="M21.7274 4.12312C21.7274 6.92916 22.502 9.55249 23.8472 11.7869H24.803V13.1866C27.48 16.6619 31.6607 18.8977 36.3586 18.8977C36.4387 18.8977 36.5187 18.897 36.5986 18.8957C36.605 18.7805 36.6083 18.6643 36.6083 18.5475V7.27532C36.6083 4.0672 33.9062 1.65727 30.6988 1.12185C28.6684 0.78334 26.5617 0.629555 24.5413 0.638955C23.714 0.642805 22.9021 0.67401 22.115 0.730174C21.8615 1.81963 21.7274 2.95556 21.7274 4.12312Z" fill="url(#paint7_linear_1_36)" fill-opacity="0.24"/>
<path d="M0.334587 25.0305C7.38421 25.0296 13.269 19.9942 14.6549 13.2908H8.54826C5.1133 13.2908 2.10556 15.3587 1.16477 19.2925C0.641953 21.4649 0.359844 23.2437 0.334587 25.0305Z" fill="url(#paint8_linear_1_36)" fill-opacity="0.24"/>
<path d="M12.9839 11.7869H14.8863C14.9376 11.2837 14.9639 10.7729 14.9639 10.256C14.9639 8.00917 14.4673 5.87952 13.5788 3.97284C13.1203 4.86185 12.9839 5.9511 12.9839 7.27532V11.7869Z" fill="url(#paint9_linear_1_36)" fill-opacity="0.24"/>
<path d="M4.23124 36.3916C5.11949 36.9895 6.18686 37.3252 7.44625 37.3252H11.5099V31.9168C11.5099 30.5928 11.8975 29.3217 12.5659 28.2197C8.35596 28.8848 5.0101 32.1819 4.23124 36.3916Z" fill="url(#paint10_linear_1_36)" fill-opacity="0.24"/>
<path d="M14.8677 27.7042C15.9274 26.6874 17.3466 26.0531 18.8935 26.0531H30.6988C34.4139 26.0531 37.6972 22.9937 38.0509 19.2208C41.3499 18.8479 44.3265 17.3977 46.6276 15.2267C47.4667 16.28 48.0313 17.6939 48.4275 19.2925C48.8251 20.8936 49.0949 22.3598 49.2308 23.7419C47.3744 22.8694 45.3046 22.3823 43.122 22.3823C35.1177 22.3823 28.6289 28.9347 28.6289 37.0174C28.6289 37.1203 28.6299 37.2229 28.632 37.3252H24.803V38.8291H28.7388C28.9022 40.1656 29.2441 41.4464 29.7396 42.6462C29.4185 43.036 29.2249 43.5378 29.2249 44.0858C29.2249 45.3336 30.2219 46.3485 31.4427 46.3485C31.6045 46.3485 31.7623 46.3308 31.9143 46.2972C32.4449 46.95 33.0305 47.5555 33.6637 48.1068C32.7613 48.6512 31.7325 49.0564 30.6988 49.3562C26.2224 50.6572 22.6348 50.458 18.8935 49.3562C18.1512 49.1375 17.4279 48.8643 16.7567 48.5317C21.282 47.3563 24.626 43.2084 24.626 38.2719C24.626 32.67 20.3198 28.0836 14.8677 27.7042Z" stroke="#F1F1F1" stroke-width="0.2" stroke-linecap="round"/>
<path d="M14.4875 28.103C19.8895 28.2902 24.2119 32.7713 24.2119 38.2719C24.2119 43.1778 20.7736 47.2727 16.1977 48.2336C14.3288 47.1612 12.9839 45.5699 12.9839 43.3407V32.0686C12.9839 30.5706 13.5547 29.1732 14.4875 28.103Z" stroke="#F1F1F1" stroke-width="0.2" stroke-linecap="round"/>
<path d="M49.2731 24.2254C47.4147 23.3125 45.3276 22.8004 43.122 22.8004C35.3464 22.8004 29.043 29.1656 29.043 37.0174C29.043 37.1203 29.044 37.2229 29.0462 37.3252H42.5179C45.9529 37.3252 47.2329 34.9255 48.4275 31.3235C49.1973 29.0101 49.4665 26.7519 49.2731 24.2254Z" stroke="#F1F1F1" stroke-width="0.2" stroke-linecap="round"/>
<path d="M29.1562 38.8291H36.6084V43.3407C36.6084 45.406 35.5359 46.8574 34.0302 47.873C33.4189 47.3504 32.8523 46.7761 32.3371 46.1567C33.1166 45.8055 33.6605 45.0095 33.6605 44.0858C33.6605 42.8423 32.6679 41.8368 31.4427 41.8368C30.9201 41.8368 30.4385 42.0211 30.0586 42.3294C29.6176 41.2246 29.3101 40.0511 29.1562 38.8291Z" stroke="#F1F1F1" stroke-width="0.2" stroke-linecap="round"/>
<path d="M38.078 18.7967C38.0809 18.7139 38.0823 18.6309 38.0823 18.5475V13.2908H42.5179C44.1849 13.2908 45.4248 13.8962 46.3567 14.91C44.1345 17.0112 41.2625 18.4203 38.078 18.7967Z" stroke="#F1F1F1" stroke-width="0.2" stroke-linecap="round"/>
<path fill-rule="evenodd" clip-rule="evenodd" d="M21.6823 0.763765C20.7041 0.845907 19.768 0.966855 18.8934 1.12185C16.1529 1.60677 14.6414 2.38213 13.8349 3.54604C14.8229 5.56955 15.378 7.84729 15.378 10.256C15.378 10.7727 15.3525 11.2835 15.3026 11.7869H23.365C22.0608 9.53711 21.3133 6.91827 21.3133 4.12312C21.3133 2.96874 21.4408 1.84443 21.6823 0.763765ZM18.1392 4.40188C18.2663 4.40188 18.3693 4.50589 18.3693 4.63419V8.35106C18.3693 8.47936 18.2663 8.58337 18.1392 8.58337C18.0122 8.58337 17.9092 8.47936 17.9092 8.35106V4.63419C17.9092 4.50589 18.0122 4.40188 18.1392 4.40188ZM17.219 4.86649C17.3461 4.86649 17.4491 4.9705 17.4491 5.0988V7.88645C17.4491 8.01475 17.3461 8.11876 17.219 8.11876C17.092 8.11876 16.989 8.01475 16.989 7.88645V5.0988C16.989 4.9705 17.092 4.86649 17.219 4.86649ZM16.2988 5.79571C16.4259 5.79571 16.5289 5.89972 16.5289 6.02802V6.95723C16.5289 7.08553 16.4259 7.18954 16.2988 7.18954C16.1718 7.18954 16.0688 7.08553 16.0688 6.95723V6.02802C16.0688 5.89972 16.1718 5.79571 16.2988 5.79571ZM19.2895 5.0988C19.2895 4.9705 19.1865 4.86649 19.0594 4.86649C18.9324 4.86649 18.8294 4.9705 18.8294 5.0988V7.88645C18.8294 8.01475 18.9324 8.11876 19.0594 8.11876C19.1865 8.11876 19.2895 8.01475 19.2895 7.88645V5.0988ZM20.2097 6.02802C20.2097 5.89972 20.1067 5.79571 19.9796 5.79571C19.8526 5.79571 19.7496 5.89972 19.7496 6.02802V6.95723C19.7496 7.08553 19.8526 7.18954 19.9796 7.18954C20.1067 7.18954 20.2097 7.08553 20.2097 6.95723V6.02802Z" stroke="#F1F1F1" stroke-width="0.2" stroke-linecap="round"/>
<path d="M12.8715 27.7549C14.2215 25.8555 16.4388 24.563 18.8934 24.563H30.6988C33.7268 24.563 36.192 22.262 36.5607 19.3145C36.4934 19.3154 36.426 19.3158 36.3586 19.3158C31.4595 19.3158 27.1073 16.9513 24.3601 13.2908H15.0778C13.6852 20.2271 7.61314 25.4484 0.333374 25.4487C0.348235 27.235 0.620015 29.0604 1.16477 31.3235C1.65295 33.3599 2.53488 35.0561 3.86205 36.1199C4.76353 31.7086 8.38127 28.2996 12.8715 27.7549Z" stroke="#F1F1F1" stroke-width="0.2" stroke-linecap="round"/>
<path d="M21.7274 4.12312C21.7274 6.92916 22.502 9.55249 23.8472 11.7869H24.803V13.1866C27.48 16.6619 31.6607 18.8977 36.3586 18.8977C36.4387 18.8977 36.5187 18.897 36.5986 18.8957C36.605 18.7805 36.6083 18.6643 36.6083 18.5475V7.27532C36.6083 4.0672 33.9062 1.65727 30.6988 1.12185C28.6684 0.78334 26.5617 0.629555 24.5413 0.638955C23.714 0.642805 22.9021 0.67401 22.115 0.730174C21.8615 1.81963 21.7274 2.95556 21.7274 4.12312Z" stroke="#F1F1F1" stroke-width="0.2" stroke-linecap="round"/>
<path d="M0.334587 25.0305C7.38421 25.0296 13.269 19.9942 14.6549 13.2908H8.54826C5.1133 13.2908 2.10556 15.3587 1.16477 19.2925C0.641953 21.4649 0.359844 23.2437 0.334587 25.0305Z" stroke="#F1F1F1" stroke-width="0.2" stroke-linecap="round"/>
<path d="M12.9839 11.7869H14.8863C14.9376 11.2837 14.9639 10.7729 14.9639 10.256C14.9639 8.00917 14.4673 5.87952 13.5788 3.97284C13.1203 4.86185 12.9839 5.9511 12.9839 7.27532V11.7869Z" stroke="#F1F1F1" stroke-width="0.2" stroke-linecap="round"/>
<path d="M4.23124 36.3916C5.11949 36.9895 6.18686 37.3252 7.44625 37.3252H11.5099V31.9168C11.5099 30.5928 11.8975 29.3217 12.5659 28.2197C8.35596 28.8848 5.0101 32.1819 4.23124 36.3916Z" stroke="#F1F1F1" stroke-width="0.2" stroke-linecap="round"/>
<defs>
<linearGradient id="paint0_linear_1_36" x1="30.8334" y1="42.1386" x2="-1.16663" y2="-19.3614" gradientUnits="userSpaceOnUse">
<stop stop-color="white"/>
<stop offset="0.572917" stop-color="white" stop-opacity="0.111922"/>
<stop offset="0.64512" stop-color="#D9D9D9" stop-opacity="0"/>
</linearGradient>
<linearGradient id="paint1_linear_1_36" x1="30.8334" y1="42.1386" x2="-1.16663" y2="-19.3614" gradientUnits="userSpaceOnUse">
<stop stop-color="white"/>
<stop offset="0.572917" stop-color="white" stop-opacity="0.111922"/>
<stop offset="0.64512" stop-color="#D9D9D9" stop-opacity="0"/>
</linearGradient>
<linearGradient id="paint2_linear_1_36" x1="30.8334" y1="42.1386" x2="-1.16663" y2="-19.3614" gradientUnits="userSpaceOnUse">
<stop stop-color="white"/>
<stop offset="0.572917" stop-color="white" stop-opacity="0.111922"/>
<stop offset="0.64512" stop-color="#D9D9D9" stop-opacity="0"/>
</linearGradient>
<linearGradient id="paint3_linear_1_36" x1="30.8334" y1="42.1386" x2="-1.16663" y2="-19.3614" gradientUnits="userSpaceOnUse">
<stop stop-color="white"/>
<stop offset="0.572917" stop-color="white" stop-opacity="0.111922"/>
<stop offset="0.64512" stop-color="#D9D9D9" stop-opacity="0"/>
</linearGradient>
<linearGradient id="paint4_linear_1_36" x1="30.8334" y1="42.1386" x2="-1.16663" y2="-19.3614" gradientUnits="userSpaceOnUse">
<stop stop-color="white"/>
<stop offset="0.572917" stop-color="white" stop-opacity="0.111922"/>
<stop offset="0.64512" stop-color="#D9D9D9" stop-opacity="0"/>
</linearGradient>
<linearGradient id="paint5_linear_1_36" x1="30.8334" y1="42.1386" x2="-1.16663" y2="-19.3614" gradientUnits="userSpaceOnUse">
<stop stop-color="white"/>
<stop offset="0.572917" stop-color="white" stop-opacity="0.111922"/>
<stop offset="0.64512" stop-color="#D9D9D9" stop-opacity="0"/>
</linearGradient>
<linearGradient id="paint6_linear_1_36" x1="30.8334" y1="42.1386" x2="-1.16663" y2="-19.3614" gradientUnits="userSpaceOnUse">
<stop stop-color="white"/>
<stop offset="0.572917" stop-color="white" stop-opacity="0.111922"/>
<stop offset="0.64512" stop-color="#D9D9D9" stop-opacity="0"/>
</linearGradient>
<linearGradient id="paint7_linear_1_36" x1="30.8334" y1="42.1386" x2="-1.16663" y2="-19.3614" gradientUnits="userSpaceOnUse">
<stop stop-color="white"/>
<stop offset="0.572917" stop-color="white" stop-opacity="0.111922"/>
<stop offset="0.64512" stop-color="#D9D9D9" stop-opacity="0"/>
</linearGradient>
<linearGradient id="paint8_linear_1_36" x1="30.8334" y1="42.1386" x2="-1.16663" y2="-19.3614" gradientUnits="userSpaceOnUse">
<stop stop-color="white"/>
<stop offset="0.572917" stop-color="white" stop-opacity="0.111922"/>
<stop offset="0.64512" stop-color="#D9D9D9" stop-opacity="0"/>
</linearGradient>
<linearGradient id="paint9_linear_1_36" x1="30.8334" y1="42.1386" x2="-1.16663" y2="-19.3614" gradientUnits="userSpaceOnUse">
<stop stop-color="white"/>
<stop offset="0.572917" stop-color="white" stop-opacity="0.111922"/>
<stop offset="0.64512" stop-color="#D9D9D9" stop-opacity="0"/>
</linearGradient>
<linearGradient id="paint10_linear_1_36" x1="30.8334" y1="42.1386" x2="-1.16663" y2="-19.3614" gradientUnits="userSpaceOnUse">
<stop stop-color="white"/>
<stop offset="0.572917" stop-color="white" stop-opacity="0.111922"/>
<stop offset="0.64512" stop-color="#D9D9D9" stop-opacity="0"/>
</linearGradient>
</defs>
</svg>
