<svg width="334" height="244" viewBox="0 0 334 244" fill="none" xmlns="http://www.w3.org/2000/svg">
<path fill-rule="evenodd" clip-rule="evenodd" d="M268.027 32.5259C263.328 20.0337 251.763 11.6626 239.308 14.3196C230.925 16.1079 226.131 19.5987 223.325 23.5409C220.437 27.5968 219.104 32.9081 219.138 39.2104C219.206 51.9801 224.881 66.6691 230.085 76.337L237.23 88.4517L245.36 98.7706C247.646 101.672 247.147 105.878 244.246 108.164C241.344 110.451 237.138 109.952 234.852 107.05L226.443 96.3773C226.257 96.1417 226.088 95.8939 225.935 95.6355L219.086 84.0205C217.704 82.9805 215.437 81.7398 212.24 80.4787C208.579 79.0342 204.161 77.7411 199.462 76.7262C189.899 74.6605 180.09 73.9391 173.871 74.9133C144.807 79.4654 126.099 100.662 114.457 126.945C102.808 153.243 98.8365 183.463 98.8062 203.169C98.7885 214.66 102.597 221.157 106.801 224.862C111.206 228.745 116.783 230.204 121.057 230.204H164.357C175.872 230.204 183.725 230.181 188.774 229.359C190.37 229.099 191.32 228.808 191.845 228.599C191.878 228.335 191.927 228.073 191.992 227.815C192.654 225.168 192.328 223.513 191.839 222.426C191.314 221.258 190.306 220.103 188.636 219.021C185.117 216.741 179.938 215.636 176.117 215.473C172.836 215.334 170.142 212.834 169.758 209.573C169.374 206.312 171.414 203.254 174.572 202.356C194.261 196.76 199.183 185.208 199.604 182.308C200.006 179.537 202.092 177.309 204.831 176.727C207.571 176.144 210.383 177.329 211.879 179.696L243.792 230.204H260.366C260.93 230.194 261.475 230.186 262.002 230.177C264.743 230.134 266.986 230.099 268.917 229.999C271.01 229.891 272.321 229.722 273.148 229.524C273.148 229.496 273.148 229.467 273.148 229.437C273.148 228.781 273.245 228.129 273.435 227.501C274.061 225.43 273.794 224.011 273.206 222.834C272.525 221.473 271.159 219.976 268.933 218.484C264.404 215.449 257.976 213.544 253.36 212.817C250.539 212.374 248.311 210.189 247.813 207.378C247.314 204.567 248.655 201.749 251.151 200.362L251.151 200.362C251.175 200.344 251.888 199.825 253.026 197.936C254.084 196.179 255.151 193.848 256.161 191.164C258.178 185.807 259.694 179.797 260.454 175.95C261.007 173.153 263.272 171.014 266.096 170.622C294.543 166.671 312.648 154.529 319.533 148.008C317.502 126.368 312.489 111.992 306.745 102.65C301.789 94.5891 296.362 89.0576 291.514 85.7602C286.496 82.3466 282.799 81.7627 280.979 82.0779C278.902 82.4379 276.776 81.797 275.243 80.3486C273.711 78.9003 272.951 76.8141 273.193 74.7193C274.696 61.7094 273.47 46.9915 268.027 32.5259ZM273.088 230.229C273.088 230.229 273.089 230.225 273.091 230.218C273.089 230.226 273.088 230.229 273.088 230.229ZM210.903 65.8723C207.993 57.5765 205.808 48.2656 205.76 39.2816C205.717 31.1771 207.413 22.8241 212.426 15.7825C217.52 8.62717 225.495 3.5872 236.517 1.2359C254.224 -2.54146 269.101 7.2608 277.019 20.5073C282.568 17.5707 288.721 15.6582 294.86 15.0278C303.642 14.1259 312.967 15.8147 320.332 21.6468C327.841 27.5928 332.327 37.0614 332.768 49.6694C333.203 62.0801 329.764 77.7936 321.361 97.2865C321.354 97.3095 321.345 97.3352 321.336 97.3633C321.321 97.4078 321.303 97.4581 321.284 97.5123C321.126 97.9645 320.908 98.5077 320.571 99.1528C320.506 99.2773 320.438 99.4033 320.366 99.531C326.68 111.385 331.377 127.743 333.126 149.927C333.266 151.706 332.69 153.467 331.525 154.819C324.652 162.794 304.398 177.652 272.554 183.154C271.614 187.007 270.302 191.572 268.681 195.877C267.869 198.036 266.944 200.221 265.906 202.265C269.471 203.519 273.135 205.195 276.38 207.37C279.777 209.647 283.112 212.734 285.171 216.85C287.194 220.896 287.767 225.517 286.502 230.438C286.383 232.806 285.803 235.361 284.16 237.634C282.243 240.286 279.57 241.603 277.144 242.302C274.809 242.975 272.181 243.227 269.606 243.36C267.413 243.473 264.875 243.512 262.138 243.555C261.61 243.563 261.074 243.572 260.532 243.581C260.495 243.581 260.458 243.582 260.421 243.582H240.106C237.811 243.582 235.677 242.406 234.451 240.466L207.002 197.023C204.268 200.639 200.504 204.294 195.518 207.544C195.649 207.626 195.78 207.709 195.91 207.793C199.125 209.876 202.195 212.835 204.041 216.941C205.836 220.934 206.224 225.463 205.14 230.342C204.896 233.944 203.186 237.02 200.243 239.158C197.517 241.14 194.103 242.045 190.925 242.563C184.665 243.583 175.703 243.582 165.034 243.582H121.057C114.147 243.582 105.234 241.313 97.9553 234.898C92.1794 229.808 87.841 222.466 86.1742 212.577C81.0445 214.18 75.2454 215.401 69.2928 215.714C62.4942 216.217 56.1767 215.596 50.3287 213.967C37.7608 210.467 28.1774 202.54 21.0464 192.851C6.99311 173.756 1.72718 146.882 0.956474 128.262C0.100557 107.583 4.6171 92.3134 12.4689 82.1716C20.388 71.943 31.3573 67.4372 41.8669 68.0213C52.2496 68.5983 62.0335 74.1645 67.4153 83.5697C72.8821 93.1233 73.2972 105.675 66.9129 119.289C66.8191 119.489 66.7154 119.684 66.6023 119.874C63.9817 124.27 61.1202 128.717 58.3257 133.06C57.9678 133.617 57.6111 134.171 57.2561 134.724C54.0964 139.641 51.0571 144.423 48.388 149.111C42.9945 158.584 39.7114 166.688 39.6363 173.52C40.411 183.374 43.044 189.76 46.2645 193.887C49.4689 197.992 53.6465 200.367 58.4526 201.533C61.626 202.303 65.0321 202.532 68.4756 202.359C73.5658 201.967 79.2194 200.764 85.4984 198.531C86.0919 177.585 90.5249 147.94 102.225 121.526C114.82 93.0917 136.439 67.2349 171.8 61.6964C180.324 60.3613 191.959 61.4188 202.286 63.6497C205.225 64.2844 208.13 65.0293 210.903 65.8723ZM26.4518 176.274C26.3853 175.611 26.3265 174.939 26.2756 174.258C26.2632 174.092 26.2569 173.926 26.2569 173.759C26.2569 163.15 31.1476 152.353 36.7623 142.492C39.6289 137.457 42.8462 132.401 46.0014 127.491C46.3602 126.933 46.7181 126.377 47.0746 125.822C49.8201 121.555 52.4889 117.406 54.9369 113.315C59.6867 103.002 58.6795 95.2394 55.8039 90.214C52.8161 84.9926 47.2749 81.7205 41.1245 81.3787C35.101 81.0439 28.3294 83.5387 23.0472 90.3614C17.6979 97.2708 13.553 109.103 14.3231 127.708C14.9211 142.156 18.4653 161.081 26.4518 176.274ZM311.447 86.2425C317.586 70.6346 319.702 58.8085 319.398 50.1374C319.063 40.5568 315.822 35.1399 312.027 32.135C308.089 29.0161 302.532 27.6883 296.226 28.3359C291.461 28.8252 286.593 30.424 282.3 32.8673C286.242 45.2751 287.587 57.6948 287.051 69.2197C291.116 70.1449 295.206 72.0923 299.038 74.6985C303.251 77.5642 307.463 81.4237 311.447 86.2425Z" fill="#F7F7FF"/>
<path d="M292.084 122.007C292.084 128.283 286.997 133.37 280.721 133.37C274.446 133.37 269.359 128.283 269.359 122.007C269.359 115.732 274.446 110.645 280.721 110.645C286.997 110.645 292.084 115.732 292.084 122.007Z" fill="#F7F7FF"/>
</svg>
