<svg width="40" height="41" viewBox="0 0 40 41" fill="none" xmlns="http://www.w3.org/2000/svg">
<g clip-path="url(#clip0_1_310)">
<path fill-rule="evenodd" clip-rule="evenodd" d="M20 40.2881C31.0457 40.2881 40 31.3338 40 20.2881C40 9.24239 31.0457 0.288086 20 0.288086C8.9543 0.288086 0 9.24239 0 20.2881C0 31.3338 8.9543 40.2881 20 40.2881ZM21.1996 13.4853H19.5968V18.2822H21.1996V13.4853ZM25.6043 13.4853H24.0015V18.2822H25.6043V13.4853ZM10.3952 13.0818L14.3964 9.08055H29.6055V20.2884L22.3988 27.4951H19.2046L15.1921 31.4963V27.4951H10.3952V13.0818ZM24.8085 22.6869L28.0027 19.4927V10.6833H15.1921V22.6869H18.8011V25.4889L21.603 22.6869H24.8085Z" fill="#F1F1F1"/>
</g>
<defs>
<clipPath id="clip0_1_310">
<rect y="0.288086" width="40" height="40" rx="20" fill="white"/>
</clipPath>
</defs>
</svg>
