<svg width="40" height="41" viewBox="0 0 40 41" fill="none" xmlns="http://www.w3.org/2000/svg">
<g clip-path="url(#clip0_1_279)">
<path fill-rule="evenodd" clip-rule="evenodd" d="M20 40.2881C31.0457 40.2881 40 31.3338 40 20.2881C40 9.24239 31.0457 0.288086 20 0.288086C8.9543 0.288086 0 9.24239 0 20.2881C0 31.3338 8.9543 40.2881 20 40.2881ZM31.4362 12.7746C32.2895 12.7746 32.4677 13.206 32.2895 13.7921H32.2884C31.931 15.4054 28.4962 20.1561 28.4962 20.1561C28.1978 20.6251 28.0787 20.8602 28.4962 21.3872C28.6438 21.5898 28.9581 21.8921 29.3175 22.2378C29.6872 22.5934 30.1048 22.9951 30.4379 23.3815C31.6476 24.72 32.56 25.8481 32.8154 26.6252C33.0473 27.4066 32.6437 27.8016 31.8387 27.8016H29.0211C28.2656 27.8016 27.8856 27.3863 27.064 26.4884C26.7161 26.1081 26.2889 25.6413 25.7205 25.0828C24.0482 23.4996 23.3323 23.2935 22.9137 23.2935C22.3459 23.2935 22.1763 23.4513 22.1763 24.2424V26.725C22.1763 27.4066 21.9552 27.8016 20.1637 27.8016C17.1766 27.8016 13.8974 26.0209 11.5682 22.7364C8.07445 17.9267 7.11916 14.2901 7.11916 13.5581C7.11916 13.147 7.28016 12.7746 8.08518 12.7746H10.9049C11.6251 12.7746 11.8956 13.0837 12.1629 13.8511C13.5422 17.7947 15.866 21.2412 16.8213 21.2412C17.1798 21.2412 17.344 21.0792 17.344 20.185V16.1084C17.2796 14.9483 16.8668 14.4464 16.5611 14.0747C16.3724 13.8453 16.2245 13.6655 16.2245 13.4111C16.2245 13.1009 16.4939 12.7746 16.9415 12.7746H21.3723C21.9691 12.7746 22.1666 13.088 22.1666 13.7921V19.2759C22.1666 19.863 22.436 20.068 22.6153 20.068C22.9738 20.068 23.2722 19.863 23.9291 19.2169C25.9588 16.9886 27.3917 13.5581 27.3917 13.5581C27.571 13.147 27.9016 12.7746 28.6186 12.7746H31.4362Z" fill="#F1F1F1"/>
</g>
<defs>
<clipPath id="clip0_1_279">
<rect y="0.288086" width="40" height="40" rx="20" fill="white"/>
</clipPath>
</defs>
</svg>
