<svg width="40" height="41" viewBox="0 0 40 41" fill="none" xmlns="http://www.w3.org/2000/svg">
<g clip-path="url(#clip0_1_302)">
<g clip-path="url(#clip1_1_302)">
<path fill-rule="evenodd" clip-rule="evenodd" d="M20 40.2881C31.0457 40.2881 40 31.3338 40 20.2881C40 9.24239 31.0457 0.288086 20 0.288086C8.9543 0.288086 0 9.24239 0 20.2881C0 31.3338 8.9543 40.2881 20 40.2881ZM23.6163 20.29L17.7327 23.6909V16.8891L23.6163 20.29ZM31.155 16.9684C31.087 16.0615 30.985 15.3473 30.8376 14.8145C30.5542 13.7942 29.8967 13.1367 28.8764 12.8533C27.7088 12.5359 24.75 12.3545 20 12.3545L18.1975 12.4225C16.9505 12.4225 15.6015 12.4565 14.1277 12.5359C12.6313 12.6039 11.6564 12.7059 11.1236 12.8533C10.1033 13.1367 9.44579 13.7942 9.16238 14.8145C8.84496 15.9821 8.66357 17.8073 8.66357 20.29L8.73159 21.2423C8.73159 21.9224 8.7656 22.7046 8.84496 23.6116C8.91298 24.5185 9.015 25.2327 9.16238 25.7655C9.44579 26.7858 10.1033 27.4433 11.1236 27.7267C12.2912 28.0441 15.25 28.2255 20 28.2255L21.8025 28.1575C23.0495 28.1575 24.3985 28.1235 25.8723 28.0441C27.3687 27.9761 28.3436 27.8741 28.8764 27.7267C29.8967 27.4433 30.5542 26.7858 30.8376 25.7655C31.155 24.5978 31.3364 22.7727 31.3364 20.29L31.2684 19.3377C31.2684 18.6575 31.2344 17.8753 31.155 16.9684Z" fill="#F1F1F1"/>
</g>
</g>
<defs>
<clipPath id="clip0_1_302">
<rect y="0.288086" width="40" height="40" rx="20" fill="white"/>
</clipPath>
<clipPath id="clip1_1_302">
<rect y="0.288086" width="40" height="40" rx="20" fill="white"/>
</clipPath>
</defs>
</svg>
