<svg width="40" height="50" viewBox="0 0 40 50" fill="none" xmlns="http://www.w3.org/2000/svg">
<path fill-rule="evenodd" clip-rule="evenodd" d="M19.0661 0.852358C20.9059 -0.295716 23.2398 -0.283108 25.0672 0.884771L33.5422 6.30114C37.0414 8.53743 37.0066 13.6712 33.4775 15.8597L30.9867 17.4042L37.4023 21.5152C39.0207 22.5522 40 24.3449 40 26.2704V34.2131C40 36.1387 39.0207 37.9313 37.4023 38.9684L21.5727 49.1116C19.7132 50.3031 17.3308 50.2955 15.4789 49.0922L6.42195 43.2073C3.0662 41.0268 2.98468 36.1322 6.26596 33.8406L8.66265 32.1668L2.97805 28.517C1.36211 27.4795 0.384644 25.6882 0.384644 23.7645V15.6445C0.384644 13.6949 1.38833 11.8834 3.03931 10.8532L19.0661 0.852358ZM10.9553 33.6226L7.69613 35.8987C5.87319 37.1718 5.91848 39.8911 7.78279 41.1024L16.8398 46.9874C17.8686 47.6559 19.1922 47.6601 20.2252 46.9982L26.2854 43.1149L10.9553 33.6226ZM29.8877 40.8067L36.0548 36.8549C36.9539 36.2788 37.498 35.2829 37.498 34.2131V26.2704C37.498 25.2007 36.9539 24.2048 36.0548 23.6286L27.9719 18.4492L13.1218 9.11L13.1879 17.2664C13.1966 18.3383 13.751 19.3315 14.6578 19.8996L27.2418 27.7843C28.8878 28.8156 29.8877 30.6243 29.8877 32.5701V40.8067ZM14.213 6.83525L28.6413 15.9092L32.1613 13.7265C34.1219 12.5107 34.1412 9.65858 32.1973 8.4162L23.7222 2.99983C22.707 2.351 21.4104 2.344 20.3883 2.98182L14.213 6.83525ZM10.6194 9.07765L10.686 17.2867C10.7016 19.2162 11.6995 21.004 13.3317 22.0267L25.9157 29.9114C26.8301 30.4843 27.3857 31.4891 27.3857 32.5701V40.8481L11.5801 31.0614L4.32745 26.4048C3.42971 25.8284 2.88667 24.8332 2.88667 23.7645V15.6445C2.88667 14.5614 3.44427 13.555 4.36148 12.9826L10.6194 9.07765Z" fill="#181818"/>
</svg>
